<?xml version="1.0" encoding="UTF-8"?>
<!-- Created with Inkscape (http://www.inkscape.org/) -->
<svg width="554.91" height="308.91" version="1.1" viewBox="0 0 554.91 308.91" xml:space="preserve" xmlns="http://www.w3.org/2000/svg" xmlns:cc="http://creativecommons.org/ns#" xmlns:dc="http://purl.org/dc/elements/1.1/" xmlns:rdf="http://www.w3.org/1999/02/22-rdf-syntax-ns#" xmlns:xlink="http://www.w3.org/1999/xlink"><metadata><rdf:RDF><cc:Work rdf:about=""><dc:format>image/svg+xml</dc:format><dc:type rdf:resource="http://purl.org/dc/dcmitype/StillImage"/><dc:title/></cc:Work></rdf:RDF></metadata><defs><clipPath id="clipPath276"><path d="m331.33 185.73h43.871v-73.238h-43.871z"/></clipPath><clipPath id="clipPath320"><path d="m500.1 140.6h12.857v-12.857h-12.857z"/></clipPath><clipPath id="clipPath336"><path d="m499.57 127.73h13.378v-28.612h-13.378z"/></clipPath><clipPath id="clipPath364"><path d="m479.93 138.55h13.255v-41.088h-13.255z"/></clipPath><clipPath id="clipPath414"><path d="m242.25 277.4h24.141v-168.52h-24.141z"/></clipPath><clipPath id="clipPath448"><path d="m219.62 146.11h15.082v-41.41h-15.082z"/></clipPath><clipPath id="clipPath478"><path d="m288.03 149.41h18.867v-40.033h-18.867z"/></clipPath></defs><g transform="matrix(1.3333 0 0 -1.3333 0 308.91)"><g transform="translate(-182.64 -109.03)"><g transform="matrix(1.2532 0 0 1.2532 437.23 134.29)" stroke-width=".79799"><path d="m0 0h-83.174c-1.361 0-2.464-1.104-2.464-2.464s1.103-2.464 2.464-2.464h83.174c1.361 0 2.464 1.104 2.464 2.464s-1.103 2.464-2.464 2.464" fill="#e2b548"/></g><g><path d="m348.26 135.99h-6.0552v79.218h6.0552z" fill="#e8e8e8"/><path d="m428.01 135.98h-6.0577v79.223h6.0577z" fill="#e8e8e8"/><path d="m440.31 187.81h-110.41v19.755h110.41z" fill="#ffcd26"/></g><g stroke-width=".79799"><g transform="matrix(1.2532 0 0 1.2532 342.4 207.56)"><path d="m0 0-0.153-0.262-9.051-15.502h-0.765v15.764z" fill="#444"/></g><g transform="matrix(1.2532 0 0 1.2532 370.31 207.56)"><path d="m0 0-9.213-15.764h-12.038l3.662 6.262 5.551 9.502z" fill="#444"/></g><g transform="matrix(1.2532 0 0 1.2532 398.2 207.56)"><path d="m0 0-9.214-15.764h-12.038l9.213 15.764z" fill="#444"/></g><g transform="matrix(1.2532 0 0 1.2532 426.09 207.56)"><path d="m0 0-9.216-15.76h-12.036l9.216 15.76z" fill="#444"/></g><g transform="matrix(1.2532 0 0 1.2532 440.31 207.56)"><path d="m0 0v-15.76h-10.34l9.216 15.76z" fill="#444"/></g></g><path d="m440.31 152.48h-110.41v19.742h110.41z" fill="#ffcd26"/><g stroke-width=".79799"><g transform="matrix(1.2532 0 0 1.2532 342.4 172.22)"><path d="m0 0-0.153-0.261-9.051-15.493h-0.765v15.754z" fill="#444"/></g><g transform="matrix(1.2532 0 0 1.2532 370.31 172.22)"><path d="m0 0-9.213-15.754h-12.038l9.213 15.754z" fill="#444"/></g><g transform="matrix(1.2532 0 0 1.2532 398.2 172.22)"><path d="m0 0-9.214-15.754h-12.038l9.213 15.754z" fill="#444"/></g><g transform="matrix(1.2532 0 0 1.2532 426.09 172.23)"><path d="m0 0-9.216-15.76h-12.036l9.216 15.76z" fill="#444"/></g><g transform="matrix(1.2532 0 0 1.2532 440.31 172.23)"><path d="m0 0v-15.76h-10.34l9.216 15.76z" fill="#444"/></g></g><path d="m431.96 132.04h-13.954v3.9412h13.954z" fill="#aeaeae"/><path d="m352.22 132.04h-13.959v3.9462h13.959z" fill="#aeaeae"/><g stroke-width=".79799"><g transform="matrix(1.2532 0 0 1.2532 351.39 218.45)"><path d="m0 0c0-1.61-1.008-3.005-2.492-3.742-0.711-0.352-1.53-0.549-2.412-0.549s-1.709 0.197-2.42 0.558c-1.485 0.737-2.483 2.132-2.483 3.733 0 2.367 2.195 4.283 4.903 4.283 2.709 0 4.904-1.916 4.904-4.283" fill="#faa436"/></g><g transform="matrix(1.2532 0 0 1.2532 431.12 218.45)"><path d="m0 0c0-2.368-2.195-4.288-4.904-4.288s-4.905 1.92-4.905 4.288 2.196 4.287 4.905 4.287 4.904-1.919 4.904-4.287" fill="#faa436"/></g><g transform="matrix(1.2532 0 0 1.2532 -85.296 -8.9322)"><g stroke-width=".79799"><g clip-path="url(#clipPath276)" opacity=".3" stroke-width=".79799"><g transform="translate(345.98 156.99)" stroke-width=".79799"><path d="m0 0v-12.435h29.223v-15.753h-29.223v-13.164h3.158v-3.149h-11.139v3.149h3.149v13.164h-9.816v15.753h9.816v12.435h-9.816v15.764h9.816v4.957c-1.484 0.737-2.483 2.133-2.483 3.733 0 2.367 2.195 4.283 4.903 4.283 2.709 0 4.904-1.916 4.904-4.283 0-1.61-1.008-3.005-2.492-3.742v-4.948h29.223v-15.764z" fill="#444"/></g></g></g></g><g transform="matrix(1.2532 0 0 1.2532 593.42 128.11)"><path d="m0 0h-128.83c-1.296 0-2.346-1.051-2.346-2.346 0-1.296 1.05-2.346 2.346-2.346h128.83c1.295 0 2.346 1.05 2.346 2.346 0 1.295-1.051 2.346-2.346 2.346" fill="#e2b548"/></g><g transform="matrix(1.2532 0 0 1.2532 540.54 140.46)"><path d="m0 0-4.91 16.26h30.946l4.91-16.26zm-11.318 37.495h30.935l5.324-17.61h-30.946zm-6.429 21.245c11.509 0.078 26.78 0.145 30.925 0.056l5.344-17.677h-30.945zm-2.891 9.591-1.806 5.989-1.595 5.253h30.935l5.187-17.13c-0.818 0.011-1.817 0.011-3.04 0.011-3.252 0.023-7.576 0.011-11.892-0.011-6.652-0.022-13.283-0.067-15.982-0.089zm-9.989 33.057h30.935l5.494-18.179h-30.935zm-6.345 21.01h30.936l0.86-2.866 4.39-14.52h-30.936zm53.082-61.316v0.012l-19.468 64.439-0.149 0.49h-38.194l0.149-0.49 1.818-6.012 4.378-14.509 1.094-3.624 5.494-18.179 1.106-3.636 3.4-11.253 1.807-6 22.773-75.357h3.624l-2.838 9.412h30.936l2.849-9.412h3.624z" fill="#aeaeae"/></g><g transform="matrix(1.2532 0 0 1.2532 524.03 272.06)"><path d="m0 0h-30.946l4.389 14.51 0.871 2.877h30.936zm-6.589-21.803h-30.946l5.494 18.179h30.946zm-2.678-8.888-1.817-6-1.807-5.967c-2.699 0.022-9.331 0.067-15.983 0.09-4.325 0.021-8.65 0.033-11.892 0.01-1.221 0-2.22 0-3.039-0.01l5.175 17.13h30.946zm-10.043-33.202h-30.935l5.335 17.677c4.155 0.089 19.427 0.023 30.925-0.055zm-6.408-21.234h-30.946l5.324 17.61h30.936zm-6.014-19.885h-30.936l4.91 16.26h30.935zm3.506 126.02-0.148-0.491-19.458-64.428c-0.011-0.011-0.011-0.011-0.011-0.023l-22.391-74.119h3.624l2.847 9.412h30.936l-2.837-9.412h3.623l22.764 75.358 1.817 6.01 3.4 11.243 1.095 3.635 5.494 18.179 1.095 3.624 4.378 14.521 1.817 6 0.149 0.491z" fill="#e8e8e8"/></g><g transform="matrix(1.2532 0 0 1.2532 577.12 116.88)"><path d="m0 0h-51.11c-1.342 0-2.43-1.088-2.43-2.431 0-1.341 1.088-2.429 2.43-2.429h31.448c0.948 0 1.761 0.548 2.161 1.34h17.501c0.972 0 1.76 0.789 1.76 1.76 0 0.972-0.788 1.76-1.76 1.76" fill="#e2b548"/></g><g transform="matrix(1.2532 0 0 1.2532 574.29 151.13)"><path d="m0 0v-27.768c0-0.459-0.375-0.844-0.845-0.844h-25.088c-0.459 0-0.834 0.385-0.834 0.844v27.768z" fill="#e8e8e8"/></g><g transform="matrix(1.2532 0 0 1.2532 573.64 151.14)"><path d="m0 0h-1.043c0 6.517-5.308 11.814-11.824 11.814-6.517 0-11.815-5.297-11.815-11.814h-1.042c0 7.091 5.766 12.856 12.857 12.856s12.867-5.765 12.867-12.856" fill="#e8e8e8"/></g><g transform="matrix(1.2532 0 0 1.2532 574.29 151.13)"><path d="m0 0v-5.391c-0.824-0.218-1.897 0.553-2.878 0.72-0.855 0.136-1.772-0.271-2.221-0.98-0.459-0.741-0.459-1.752-1.147-2.294-0.73-0.574-1.824-0.302-2.649 0.146-0.813 0.448-1.605 1.053-2.543 1.095-0.731 0.042-1.418-0.292-1.951-0.803-0.26-0.229-0.479-0.521-0.657-0.824-0.521-0.918-0.687-1.982-0.854-3.023-0.136-0.783-0.376-1.679-1.126-1.982-0.428-0.178-0.929-0.104-1.377 0.031-1.585 0.491-2.878 1.762-3.337 3.306-0.48 1.595-0.323 3.712-1.866 4.463-0.689 0.323-1.492 0.239-2.232 0.386-0.803 0.145-1.46 0.584-1.929 1.157v3.993z" fill="#faa436"/></g><g transform="matrix(1.2532 0 0 1.2532 -85.296 -8.9322)"><g stroke-width=".79799"><g clip-path="url(#clipPath320)" opacity=".2" stroke-width=".79799"><g transform="translate(512.95 140.59)" stroke-width=".79799"><path d="m0 0v-1.042c-6.517 0-11.814-5.298-11.814-11.814h-1.042c0 7.09 5.765 12.856 12.856 12.856" fill="#444"/></g></g></g></g><g transform="matrix(1.2532 0 0 1.2532 -85.296 -8.9322)"><g stroke-width=".79799"><g clip-path="url(#clipPath336)" opacity=".2" stroke-width=".79799"><g transform="translate(499.57 127.73)" stroke-width=".79799"><path d="m0 0h13.378v-28.612h-12.544c-0.459 0-0.834 0.385-0.834 0.844z" fill="#444"/></g></g></g></g><g transform="matrix(1.2532 0 0 1.2532 549.37 148.73)"><path d="m0 0v-27.523c0-0.455-0.372-0.827-0.837-0.827h-24.857c-0.455 0-0.827 0.372-0.827 0.827v27.523z" fill="#e8e8e8"/></g><g transform="matrix(1.2532 0 0 1.2532 548.72 148.73)"><path d="m0 0h-1.033c0 6.457-5.259 11.705-11.716 11.705s-11.706-5.248-11.706-11.705h-1.033c0 7.025 5.714 12.738 12.739 12.738s12.749-5.713 12.749-12.738" fill="#e8e8e8"/></g><g transform="matrix(1.2532 0 0 1.2532 549.37 148.73)"><path d="m0 0v-5.342c-0.816-0.217-1.881 0.548-2.852 0.713-0.847 0.135-1.756-0.268-2.2-0.971-0.455-0.733-0.455-1.736-1.136-2.273-0.724-0.568-1.809-0.3-2.625 0.144-0.806 0.445-1.591 1.044-2.521 1.085-0.723 0.042-1.405-0.289-1.932-0.794-0.258-0.228-0.475-0.517-0.651-0.817-0.517-0.909-0.682-1.963-0.847-2.996-0.134-0.775-0.372-1.664-1.116-1.963-0.424-0.176-0.919-0.103-1.363 0.03-1.57 0.487-2.852 1.746-3.307 3.276-0.474 1.581-0.32 3.678-1.848 4.422-0.683 0.32-1.478 0.237-2.211 0.382-0.796 0.145-1.448 0.579-1.912 1.147v3.957z" fill="#ffcd26"/></g><g transform="matrix(1.2532 0 0 1.2532 -85.296 -8.9322)"><g stroke-width=".79799"><g clip-path="url(#clipPath364)" opacity=".2" stroke-width=".79799"><g transform="translate(481.48 125.81)" stroke-width=".79799"><path d="m0 0h11.706v-28.35h-12.429c-0.455 0-0.827 0.372-0.827 0.827v27.523h0.517c0 7.025 5.714 12.738 12.739 12.738v-1.033c-6.457 0-11.706-5.248-11.706-11.705" fill="#444"/></g></g></g></g><g transform="matrix(1.2532 0 0 1.2532 324.67 132.04)"><path d="m0 0h-88.931c-1.557 0-2.819-1.262-2.819-2.818 0-1.557 1.262-2.819 2.819-2.819h88.931c1.557 0 2.818 1.262 2.818 2.819 0 1.556-1.261 2.818-2.818 2.818" fill="#e2b548"/></g></g><path d="m251.26 133.18h-5.46v147.29h5.46z" fill="#e8e8e8"/><g stroke-width=".79799"><g transform="matrix(1.2532 0 0 1.2532 281.79 306.97)"><path d="m0 0c0-13.994-11.345-25.339-25.339-25.339-13.995 0-25.34 11.345-25.34 25.339 0 13.995 11.345 25.339 25.34 25.339 13.994 0 25.339-11.344 25.339-25.339" fill="#ffcd26"/></g><g transform="matrix(1.2532 0 0 1.2532 277.33 306.97)"><path d="m0 0c0-12.028-9.751-21.78-21.78-21.78s-21.781 9.752-21.781 21.78c0 12.029 9.752 21.781 21.781 21.781s21.78-9.752 21.78-21.781" fill="#ffcd26"/></g><g transform="matrix(1.2532 0 0 1.2532 250.03 333.47)"><path d="m0 0c-11.661 0-21.148-9.488-21.148-21.149s9.487-21.147 21.148-21.147c11.662 0 21.148 9.486 21.148 21.147s-9.486 21.149-21.148 21.149m0-43.561c-12.358 0-22.412 10.054-22.412 22.412s10.054 22.413 22.412 22.413 22.413-10.055 22.413-22.413-10.055-22.412-22.413-22.412" fill="#444"/></g><g transform="matrix(1.2532 0 0 1.2532 268.99 312.92)"><path d="m0 0-1.793 1.793c-0.382-0.38-0.999-0.38-1.38 0l-0.24 0.241 0.454 0.453c0.13 0.131 0.13 0.342 0 0.472l-4.596 4.596s-3.462 2.581-6.609 0.736l0.891-0.783s1.418 0.136 3.052-0.636c0.655-0.31 0.804-1.18 0.291-1.693l-0.457-0.456c-0.438-0.439-0.438-1.15 0-1.589l0.443-0.442-9.367-9.367-0.163 0.164c-0.181 0.181-0.474 0.181-0.655 0l-8.399-8.399c-0.513-0.512-0.513-1.344 0-1.858l1.579-1.578c0.513-0.513 1.345-0.513 1.858 0l8.399 8.398c0.18 0.181 0.18 0.474 0 0.656l-0.164 0.163 9.366 9.366 0.904-0.904c0.13-0.13 0.342-0.13 0.473 0l0.453 0.454 0.24-0.24c0.381-0.381 0.381-0.999 0-1.38l1.794-1.793c0.216-0.216 0.566-0.216 0.783 0l2.843 2.843c0.216 0.216 0.216 0.567 0 0.783" fill="#444"/></g><g transform="matrix(1.2532 0 0 1.2532 249.79 311.3)"><path d="m0 0-2.615-2.615-4.259 4.253c-1.689-0.661-3.702-0.305-5.082 1.079-1.388 1.388-1.42 3.726-0.759 5.415l3.078-3.656c0.209-0.246 0.579-0.264 0.806-0.042l1.782 1.782c0.222 0.227 0.203 0.597-0.042 0.805l-3.657 3.079c1.69 0.661 4.027 0.629 5.416-0.76 1.384-1.379 1.74-3.392 1.079-5.082z" fill="#444"/></g><g transform="matrix(1.2532 0 0 1.2532 259.35 296.24)"><path d="m0 0c-0.222-0.227-0.204-0.598 0.042-0.806l3.656-3.078c-1.689-0.662-4.031-0.629-5.415 0.76-1.384 1.384-1.745 3.393-1.079 5.086l-3.601 3.601 2.615 2.616 3.601-3.602c1.695 0.667 3.703 0.306 5.087-1.078 1.389-1.384 1.421-3.726 0.76-5.415l-3.079 3.656c-0.208 0.245-0.578 0.264-0.805 0.042z" fill="#444"/></g><g transform="matrix(1.2532 0 0 1.2532 255.57 133.18)"><path d="m0 0h-11.243c-1.428 0-2.586-1.158-2.586-2.587v-1.939h16.415v1.939c0 1.429-1.158 2.587-2.586 2.587" fill="#aeaeae"/></g><g transform="matrix(1.2532 0 0 1.2532 -85.296 -8.9322)"><g stroke-width=".79799"><g clip-path="url(#clipPath414)" opacity=".2" stroke-width=".79799"><g transform="translate(266.39 277.4)" stroke-width=".79799"><path d="m0 0v-168.52h-8.216v1.945c0 1.426 1.158 2.585 2.595 2.585h3.438v113.56c-12.391 1.648-21.958 12.267-21.958 25.118 0 13.588 10.706 24.686 24.141 25.309" fill="#444"/></g></g></g></g><g transform="matrix(1.2532 0 0 1.2532 228.52 125.66)"><path d="m0 0h-32.956c-1.45 0-2.626-1.176-2.626-2.625 0-1.45 1.176-2.626 2.626-2.626h32.956c1.45 0 2.625 1.176 2.625 2.626 0 1.449-1.175 2.625-2.625 2.625" fill="#e2b548"/></g><g transform="matrix(1.2532 0 0 1.2532 219.62 140.43)"><path d="m0 0-2.077 8.078-2.611 10.183-1.671 6.516c-0.73 2.863-3.772 2.863-4.51 0l-1.671-6.516-2.612-10.183-2.069-8.078-2.612-10.183h22.445z" fill="#ffcd26"/></g></g><path d="m227.73 122.28h-37.8v5.3936h37.8z" fill="#ffcd26"/><g stroke-width=".79799"><g transform="matrix(1.2532 0 0 1.2532 222.89 127.67)"><path d="m0 0h-22.444l2.611 10.183h17.221z" fill="#444"/></g><g transform="matrix(1.2532 0 0 1.2532 217.02 150.55)"><path d="m0 0h-13.075l2.612 10.183h7.851z" fill="#444"/></g><g transform="matrix(1.2532 0 0 1.2532 -85.296 -8.9322)"><g stroke-width=".79799"><g clip-path="url(#clipPath448)" opacity=".2" stroke-width=".79799"><g transform="translate(234.71 146.11)" stroke-width=".79799"><path d="m0 0v-41.41h-15.082v4.306h3.866l2.604 10.175 2.073 8.081 2.614 10.185 1.672 6.519c0.371 1.433 1.312 2.144 2.253 2.144" fill="#444"/></g></g></g></g><g transform="matrix(1.2532 0 0 1.2532 316.9 136.59)"><path d="m0 0h-28.089l3.269 9.126 2.587 7.251 3.269 9.136 2.097 5.846c0.461 1.288 1.635 1.923 2.817 1.923 1.183 0.01 2.366-0.635 2.827-1.923l2.087-5.846 3.27-9.136 2.596-7.251z" fill="#faa436"/></g></g><path d="m322.95 128.13h-47.299v8.46h47.299z" fill="#faa436"/><g stroke-width=".79799"><g transform="matrix(1.2532 0 0 1.2532 316.9 136.59)"><path d="m0 0h-28.089l3.269 9.126h21.55z" fill="#fff"/></g><g transform="matrix(1.2532 0 0 1.2532 309.55 157.12)"><path d="m0 0h-16.367l3.269 9.136h9.828z" fill="#fff"/></g><g transform="matrix(1.2532 0 0 1.2532 -85.296 -8.9322)"><g stroke-width=".79799"><g clip-path="url(#clipPath478)" opacity=".2" stroke-width=".79799"><g transform="translate(306.9 149.41)" stroke-width=".79799"><path d="m0 0v-40.033h-18.867v6.751h4.827l3.27 9.126 2.586 7.251 3.27 9.135 2.097 5.847c0.461 1.288 1.634 1.923 2.817 1.923" fill="#444"/></g></g></g></g></g></g></g></svg>
